<svg height="126" viewBox="0 0 146 126" width="146" xmlns="http://www.w3.org/2000/svg"><g fill="none" fill-rule="evenodd" transform="translate(0 -.5)"><path d="m133 60.5c0 33.136-26.639 60-59.501 60-32.859 0-59.499-26.864-59.499-60 0-33.138 26.641-60 59.499-60 32.861 0 59.501 26.861 59.501 60" fill="#000"/><path d="m65.837 81.877s.977-14.972-3.254-21.052c-4.229-6.082-5.534-14.347-6.346-16.532-.813-2.183-5.859-3.275-5.693 1.248.162 4.523 2.438 13.1 1.789 14.817-1.69 0-5.148-.102-6.465-.14-.727-4.723-4.76-12.805-4.76-12.805s2.168-6.656 3.254-10.606c.681-2.487-.01-3.983-.617-4.75.685-4.391-2.096-5.127-2.096-5.127l-.247.304c-.127-2.446-2.139-3.525-2.139-3.525v-.209l-5.226 7.636c.066-1.004.096-1.849.074-2.437-.16-4.367-4.718-3.275-4.718-3.275l-4.393 19.181 6.348 20.586s-.328 1.714.812 3.432c1.138 1.713 3.74 3.272 6.67 5.766 2.927 2.497 11.06 12.633 11.06 12.633l1.694 30.478h18.416zm56.163-37.272-4.393-19.181s-4.556-1.092-4.717 3.275c-.022.588.01 1.433.076 2.437l-5.229-7.636v.209s-2.01 1.079-2.139 3.525l-.245-.304s-2.783.736-2.095 5.127c-.607.767-1.302 2.263-.618 4.75 1.085 3.95 3.254 10.606 3.254 10.606s-4.033 8.082-4.76 12.804c-1.318.039-4.775.141-6.467.141-.648-1.717 1.628-10.294 1.79-14.817.163-4.523-4.878-3.431-5.692-1.248-.814 2.185-2.115 10.45-6.346 16.532-4.23 6.08-3.253 21.052-3.253 21.052l-4.166 35.623h18.418l1.692-30.478s8.133-10.136 11.06-12.633c2.93-2.494 5.534-4.053 6.673-5.766 1.136-1.718.815-3.432.815-3.432z" fill="#fffffe"/><path d="m73.759 33.5h-1.519c-3.787 1.942-10.662 10.395-10.22 14.835.503 5.032 3.014 4.489 5.527 3.536 1.998-.758 2.65-1.596 4.284-1.705.276.075 2.059.075 2.338 0 1.634.11 2.283.947 4.282 1.705 2.517.953 5.027 1.496 5.529-3.536.442-4.44-6.435-12.893-10.221-14.835m-12.182-5.23s2.316 5.774 2.418 7.165c.099 1.391-1.41 6.204-3.93 4.816-2.518-1.391-6.405-11.074-2.214-12.412 3.02-.963 3.726.43 3.726.43m8.567-8.712c-1.509-1.93-5.644-1.158-5.929 1.838-.283 2.993-.375 7.825.285 8.986.658 1.158 2.824 3.09 5.548 1.542.827-.467 1.602-10.434.096-12.366m15.277 8.713s-2.316 5.774-2.416 7.165c-.099 1.391 1.41 6.204 3.93 4.816 2.517-1.391 6.404-11.074 2.214-12.412-3.023-.963-3.728.43-3.728.43m-9.567-8.712c1.507-1.93 5.646-1.158 5.931 1.838.282 2.993.376 7.825-.285 8.986-.655 1.158-2.823 3.09-5.55 1.542-.824-.467-1.6-10.434-.096-12.366m62.036 88.886 8.035-11.943h-32.925v24h33zm-137.817-11.943 8.036 11.943-8.109 12.057h33v-24z" fill="#ff2c2c"/><path d="m33 120.647-16 5.853v-24.147l16-5.853zm96-18.294-16-5.853v24.147l16 5.853z" fill="#de0404"/><path d="m17 126.5h112v-24h-112z" fill="#ff2c2c"/><path d="m33 107.61c-1.35 4.44-3.9 8.488-5.359 12.851-.145-.017-.29-.017-.454-.017-.511 0-1.148.056-1.713.056-.146 0-.292 0-.437-.02h-.037c.638-2.004 1.53-4.253 2.387-6.425v-.038c-.528-2.172-1.804-4.308-2.295-6.406.491 0 1.037-.111 1.567-.111.29 0 .583.019.855.148.237 1.095.967 3.14 1.403 4.067.493-.892 1.04-3.027 1.477-4.03.436-.093 1.275-.13 1.913-.13.292 0 .546.02.693.037v.019m5.612 5.064c0-.018-.057-.618-.076-1.037-.056-.67-.393-1.27-.973-1.544-.505-.2-1.067-.037-1.46.254-.43.326-.73.745-.88 1.255-.205.927-.225 1.965-.169 2.982.132.855.113 1.764.357 2.564.486.964 2.058 1.074 2.827.236.467-.6.28-.6.374-1.654.019-.49.037-.89.037-.946v-.872zm2.34-2.072c.056.6.056 1.2.037 1.8-.076 1.29 0 2.474-.093 3.728l-.057.6c-.056.854-.262 1.745-.712 2.455-.43.582-1.16.91-1.927 1.11-.693.2-1.404.236-2.134.181-1.03-.092-2.022-.309-2.472-1.272-.355-.602-.43-1.31-.448-2.02-.076-1.89-.225-3.8-.094-5.71.018-1.09.224-2.255.992-3.108.131-.129.262-.237.43-.329 1.648-.781 3.97-.745 5.411.329.355.308.617.69.767 1.108.168.364.244.746.3 1.128zm8.743 6.792c-.203 1.64-1.248 2.908-3.006 3.077-2.07.205-4.597-.708-4.689-3.002 0-3.283.128-6.64.074-9.921l-.019-.019h.019c.75 0 1.849-.111 2.581.094v.017c-.127 3.004-.072 6.061.166 9.157.348 1.212 2.015 1.045 2.254-.092.128-2.984.09-6.136.163-9.027.679-.055 2.09-.299 2.675.056.146 3.189.13 6.452-.218 9.66m9.134-6.161c-.073.132-.218 3.67-.073 5.393.073.738.327 1.533 1.035 1.74.527.057 1.053-.151 1.29-.663.272-.586.11-1.247.236-1.872.69.094 1.744-.095 2.435.113.816 2.61-.891 5.448-3.543 5.505-1.725.247-3.923-.397-4.123-2.515-.092-1.817-.11-3.765-.055-7.853-.055-.434.055-.888.2-1.266.218-.663.544-1.211.999-1.648.272-.207.581-.339.926-.434 3.324-1.136 6.776 2.043 5.614 5.544-.89.208-1.727.093-2.653-.077-.145-1.002.145-2.572-1.27-2.515-.31.057-.71.094-.91.302-.054.057-.09.19-.108.246m9.533 3.943c.425.017.905 0 1.367 0-.738-6.322-.85-3.756-1.367 0zm4.638 5.221v.017c-.739.147-1.682.091-2.476-.072h-.018c-.296-.788-.537-2.272-.868-2.986-.629-.093-.592-.02-1.146-.02-.334.77-.389 2.254-.813 3.061-.02 0-.038.017-.055.017-.204.056-.906-.037-2.587-.017-.018 0-.018 0-.037-.02.147-.494 1.052-6.924 2.827-12.786.35-.055.646.055 2.273-.092.222.954 1.218 5.258 1.516 6.486zm6.607.012c-.842-1.8-1.721-3.49-2.316-5.037l-.19-.545c-.097-.274-.192-.546-.25-.546-.077 0-.135 2.582-.135 4.62 0 .563 0 1.09.02 1.508-.287.073-.555.09-.841.09-.613 0-1.244-.107-1.837-.107v-1.274c0-2.31-.058-4.291-.058-6.564 0-1.672.037-3.327.172-4.872.25-.055.556-.073.861-.073.326 0 1.588.073 1.588.183.364.89.537 1.018.996 2.034.153.346 1.55 3.038 1.606 3.038.077-.055.135-.583.135-1.001 0-.964-.058-1.764-.058-2.636 0-.51.02-1.018.039-1.618.44-.072.9-.11 1.379-.11.478 0 .898.038 1.263.11v5.855c.019 1.017.019 2.072.019 3.109 0 .709-.02 1.345-.02 2.017 0 .492.02.965.02 1.455v.364c-.058.018-.193.09-.633.09-.516 0-1.242-.09-1.76-.09m15.393-.025c-.856.149-1.99.055-2.605.11h-.019c-.242-1.635-.076-3.49-.28-5.071l-.018-.02c-.725-.127-1.433-.127-2.16.038-.148 1.69.132 3.382-.11 4.925-.615.35-2.085-.129-2.53.111-.149-2.077-.335-9.061-.261-12.81v-.02h.056c.744.147 1.655-.147 2.364.055.222 1.692.092 3.272.39 4.835h.018c.614.146 1.395.037 2.01-.018h.018c.149-1.692.149-3.033.074-4.798.633-.202 1.806-.256 2.55-.202zm8.968-2.385c.056.802.056 1.696-.15 2.44-2.562-.018-5.293.168-7.723-.037 0-4.32-.226-8.473.018-12.737 2.92-.149 7.798-.224 7.798-.113.132.876 0 1.77 0 2.645v.018c-1.6.354-3.276.074-4.934.224h-.057l-.019.019c.02.725-.151 1.507.02 2.178l.018.019c.753.056 1.544.037 2.317.056v.018c.132.838.018 1.676.037 2.59-.772.204-2.015 0-2.28.204-.13.726-.056 1.731 0 2.327l.02.02c1.659 0 3.221.149 4.935.092zm8.502 2.453c-.53-.055-1.38.11-7.47.019v-.329c.227-5.459.133-7.371.057-12.486.511-.2 2.308-.237 3.026.055-.094 3.15.076 6.717.02 9.848v.018c.49-.145 4.292.182 4.897.11 0 .126 0 .272-.02.4-.017.236-.036.51-.017.71.094 1.746.037 1.655-.492 1.655m4.196-10.073c-.019 0-.037 0-.054.02.054.877-.072 2.01.161 2.74h.053c.752-.054 1.79.055 2.363-.528.393-.55.305-1.427-.322-1.81-.592-.494-1.432-.622-2.2-.421zm5.333 1.208c0 .163 0 .329-.02.475-.285 2.32-2.61 4.057-4.884 3.672.054.677-.018 1.042.072 4.589v.017c-.018 0-.037.018-.054.018-.663.183-2.184.166-2.99.073-.142-3.544.019-8.535-.124-12.591 2.953-.803 7.785-.42 8 3.729z" fill="#fffffe"/></g></svg>