<svg height="78" viewBox="0 0 73 78" width="73" xmlns="http://www.w3.org/2000/svg" xmlns:xlink="http://www.w3.org/1999/xlink"><mask id="a" fill="#fff"><path d="m.14460417.032692h10.55931253v10.95688h-10.55931253z" fill="#fff" fill-rule="evenodd"/></mask><mask id="b" fill="#fff"><path d="m.34682105.05650526h7.46442106v7.94349474h-7.46442106z" fill="#fff" fill-rule="evenodd"/></mask><mask id="c" fill="#fff"><path d="m0 .31331336h3.8284v2.68578664h-3.8284z" fill="#fff" fill-rule="evenodd"/></mask><g fill="#959595" fill-rule="evenodd"><path d="m28.2347902 21.1572914c.3580058.1044277.7089831.251753 1.0524929.440676.1111355.0597967.2099715.1100606.2956293.1494918.086097.0398645.1594553.0597968.2196354.0597968.090929 0 .1616516-.0524305.212607-.1568581.0500769-.104861.0909291-.2712519.1207995-.5004727h.3483418c-.0505162.7171275-.0755546 1.9325612-.0755546 3.6463011h-.3483418c-.0408521-.568069-.1717549-1.1105728-.3935866-1.6292445-.2227103-.5173718-.5258072-.9411487-.9097299-1.2700307-.3839226-.3288821-.8280254-.4935398-1.3331869-.4935398-.4643092 0-.8385679.1221934-1.1205798.36658-.2833297.2439534-.4247749.5854014-.4247749 1.0239109 0 .3388481.0759939.6326321.2275423.8817852s.3733802.4905066.6663738.7244938c.2929937.2339872.7731166.5810683 1.4394905 1.0390767.0606193.029465.1186031.0645631.1743905.1044276.0553481.0398645.1084999.079729.159016.1195935.5552383.3787126.9997804.714961 1.3331869 1.008745.3334066.2937839.6031188.635232.8104547 1.0239108.2068965.3886788.3110037.836721.3110037 1.3449933 0 .647798-.184933 1.1929016-.5534812 1.6361774-.3685482.4437091-.8662421.775191-1.492203.9944457-.6264001.2188214-1.3178124.3284488-2.0759938.3284488-.6158577 0-1.1280475-.0498306-1.5374479-.1494918-.4094003-.099228-.7906874-.233554-1.1438611-.4034114-.2222711-.1390924-.394026-.2092886-.5148254-.2092886-.0913684 0-.1616517.0524305-.2126071.1568582-.0505161.1048609-.0909291.2712518-.1212387.500906h-.3483418c.0404129-.6776964.0606194-2.1223509.0606194-4.3343969h.3483417c.0707226 1.1859686.3233033 2.1470495.7577422 2.8845426.4344388.7374931 1.1008126 1.1058064 2 1.1058064.5552383 0 .9971447-.1291263 1.3257193-.3886788.3281353-.2591192.4924226-.617033.4924226-1.075908 0-.568069-.1796618-1.0533759-.5381068-1.4572205-.358445-.4038447-.9167582-.8544868-1.674061-1.3519263-.6057545-.3986449-1.0911487-.7478925-1.4544257-1.0468762-.3637162-.2985504-.6615418-.6447649-.8939161-1.0386434-.2323743-.3934452-.3483417-.849287-.3483417-1.3675254 0-.6274324.1713156-1.1530371.5148253-1.5763807.3435098-.4233435.8003515-.7374931 1.3714035-.9420152.5706128-.2036556 1.1943773-.30635 1.8708544-.30635.575884 0 1.0432682.0528638 1.4017131.1572914"/><path d="m51.8929935 24.0765766c0 .4761261.0150964.8490991.0461771 1.1184684h-.3525442c-.3370038-1.3567567-.7712459-2.3355855-1.3018382-2.9364864-.5310363-.6004505-1.1024776-.9009009-1.7152118-.9009009h-.0155403v8.8864864c0 .4355856.043513.7509009.130539.9481982.086582.1968469.2450937.3288289.474647.395946.2295533.0675676.5945298.1009009 1.0953734.1009009v.3108108c-1.4403694-.0310811-2.5579433-.0468468-3.3540538-.0468468-.7255128 0-1.7769292.0157657-3.1551372.0468468v-.3108108c.5003996 0 .8653761-.0333333 1.0949294-.1009009.2299973-.0671171.388065-.1990991.475091-.395946.086582-.1972973.130095-.5126126.130095-.9481982v-8.8864864h-.0155403c-.6225025 0-1.1970518.2977477-1.72276.8932432-.5261522.5954955-.9572862 1.5765766-1.29429 2.9441441h-.3521002c.0310807-.2693693.0461771-.6423423.0461771-1.1184684 0-.9013514-.0359649-1.9265766-.1070065-3.0765766.9692745.0315315 2.6387532.0468468 5.0075482.0468468 2.3585827 0 4.0222893-.0153153 4.9924518-.0468468-.0714857 1.15-.1070065 2.1752252-.1070065 3.0765766"/><path d="m10.7041458.335852c-.3263333.07128-.5687916.17996-.72691663.32692-.158125.14652-.26308334.3718-.31579167.6754-.05316667.30316-.07929167.75812-.07929167 1.36532v3.65728c0 1.45728-.215875 2.53-.64808333 3.21772-.28416667.45496-.70308333.80432-1.25675 1.04676-.55366667.24332-1.26729167.36432-2.14225.36432-1.27554167 0-2.266-.24288-2.97183333-.72776-.51654167-.35464-.86166667-.82984-1.035375-1.42736-.17370834-.59664-.26079167-1.40536-.26079167-2.42792v-4.7652c0-.38412-.026125-.6622-.07929167-.83468-.05270833-.17204-.15583333-.28864-.30845833-.34892-.152625-.06072-.39783333-.1012-.73470833-.12188v-.30316c.60041666.03036 1.52808333.04576 2.78208333.04576 1.24345833 0 2.18716667-.0154 2.82975-.04576v.30316c-.3795.02068-.65633333.06116-.82958333.12188-.17416667.06028-.29241667.17688-.356125.34892-.06325.17248-.094875.45056-.094875.83468v6.19168c0 .97152.15858333 1.65176.474375 2.0416.31625.38896.81720833.58432 1.50195833.58432 1.001 0 1.71233333-.34188 2.134-1.02476.42120833-.68332.6325-1.65176.6325-2.9062v-3.52088c0-.74844-.03208333-1.28744-.094875-1.61612-.06325-.32912-.20304167-.56936-.41891667-.72072-.21633333-.15224-.57704166-.26312-1.08304166-.3344v-.30316c.43220833.03036 1.02208333.04576 1.77054166.04576.55825 0 .99595837-.0154 1.31174997-.04576z" mask="url(#a)" transform="translate(62 21)"/><path d="m27.4454895 43.3882883c-.1526293.072973-.25823.2018018-.3172296.3882883-.0589995.1864865-.0884993.4662162-.0884993.8391892v7.7684684c0 .372973.0294998.6522523.0884993.8387388.0589996.1864865.1646003.3162162.3172296.3882883.1522018.072072.3856349.109009.7002993.109009.9734929 0 1.6763574-.4427928 2.1085934-1.3283784.4326635-.886036.6494228-2.2036036.6494228-3.9540541 0-1.7504504-.2244549-3.0477477-.671227-3.8918919-.4476272-.8441441-1.1479264-1.2662162-2.1013253-1.2662162-.3048312 0-.5335614.0364865-.6857632.1085586m5.0354853.9864865c1.0123984.9171171 1.5190252 2.2509009 1.5190252 4.0004504 0 1.1292793-.2483968 2.1162162-.7447627 2.9603604-.496366.8441441-1.2112014 1.4990991-2.1453613 1.9653153-.9341599.4657658-2.044891.6990991-3.3326208.6990991l-.9140658-.0157658c-.5899957-.0202702-1.0226593-.031081-1.2975631-.031081-1.1504916 0-2.0059854.0153153-2.5656263.0468468v-.3108108c.3138093-.0211712.5425395-.0626126.6853356-.1243243.1423685-.0621622.238136-.1815316.2877298-.3572072.0487388-.1761262.0735357-.4612613.0735357-.8545045v-7.7058559c0-.3936937-.0273621-.6783784-.0812313-.8554054-.0542967-.1756757-.1496366-.2950451-.2877298-.3567568-.1376657-.0621621-.3638307-.1036036-.67764-.1247747v-.3103604c.451475.0310811 1.1205643.0463964 2.0051304.0463964h.5305686l.6489953-.0153153c.8255665-.0207207 1.4010261-.0310811 1.7250962-.0310811 2.0354853 0 3.5587858.4581081 4.5711843 1.3747748"/><path d="m49 43.3103731c-.3092697.021172-.5340785.0626151-.6740062.1247799-.1399277.0617142-.2344735.1810885-.2823767.3567713-.0487436.1770343-.0726952.4617306-.0726952.8554405v7.7061714c0 .3932593.0264728.6784061.0798387.8545395.0529456.1756828.1470712.2950571.2823766.3572218.1353055.0617143.3575931.1031574.6668628.1243294v.3103731c-.5605513-.0310824-1.3673418-.0463983-2.4203715-.0463983-1.1690058 0-2.0291621.0153159-2.5796285.0463983v-.3103731c.3088495-.021172.5336583-.0626151.673586-.1243294.1403479-.0621647.2344735-.181539.2827969-.3572218.0479032-.1761334.072275-.4612802.072275-.8545395v-7.7061714c0-.3937099-.026893-.6784062-.0794185-.8554405-.0533658-.1756828-.1474914-.2950571-.2827968-.3567713-.1353055-.0621648-.3575931-.1036079-.6664426-.1247799v-.3103731c.5504664.0310824 1.4106227.0463983 2.5796285.0463983 1.0437852 0 1.8505757-.0153159 2.4203715-.0463983z"/><path d="m66.2062274 47.2139715c-.1972021.6139821-.2955776 1.5455557-.2955776 2.7930248 0 1.2483172.0983755 2.1773467.2955776 2.7858165.1972022.6097419.4611914.9141888.7937726.9141888.33213 0 .5965704-.3044469.7942238-.9141888.1962997-.6084698.2955776-1.5374993.2955776-2.7858165 0-1.2474691-.0992779-2.1790427-.2955776-2.7930248-.1976534-.6144061-.4620938-.9218212-.7942238-.9218212-.3325812 0-.5965704.3074151-.7937726.9218212m3.7513538-.2709493c.6949459.6292468 1.0424188 1.6507129 1.0424188 3.0639741 0 1.4141093-.3474729 2.4326072-1.0424188 3.0567658-.6958483.6241586-1.6814079.9362379-2.9575812.9362379s-2.2621841-.3120793-2.95713-.9362379c-.6953971-.6241586-1.04287-1.6426565-1.04287-3.0567658 0-1.4132612.3474729-2.4347273 1.04287-3.0639741.6949459-.6288228 1.6809567-.9430222 2.95713-.9430222s2.2617329.3141994 2.9575812.9430222"/><path d="m33 67.3108235c-.3048963.0725255-.5306821.1833409-.6782125.3337975-.1475305.1504566-.2458841.3806462-.295061.6910193-.0496044.311274-.0735514.7775093-.0735514 1.3987059v8.2656538c-.1971349-.0202711-.3592046-.0310824-.4870643-.0310824-.1086167 0-.2903571.0108113-.545649.0310824l-6.534103-7.5201278v4.4749581c0 .766698.0299337 1.3185224.0885183 1.6550227.0590121.3369507.1894376.5824563.3912764.737868.2009836.1549613.5379517.2693804 1.0100492.3414555v.3108235c-.4036776-.0310824-.9540304-.0463983-1.651486-.0463983-.5217019 0-.9296558.0153159-1.2247167.0463983v-.3108235c.3044687-.0720751.5306821-.1837913.6782125-.3337975.1479581-.1500061.2458841-.3806462.2954886-.6914697.0491768-.3108236.0735514-.7770589.0735514-1.398706v-6.618289c0-.3937098-.027368-.6784062-.0812487-.8545395-.0543083-.1756829-.1500962-.2950571-.2877913-.3576723-.1372674-.0617143-.3634808-.1031574-.6782125-.123879v-.3108235c.2950609.0306319.7030148.0463983 1.2247167.0463983.5306821 0 .9826812-.0157664 1.3564251-.0463983l6.0324994 6.7119866v-3.6668169c0-.766698-.0299337-1.3176215-.0885183-1.6545722-.0590121-.3369507-.1894376-.5824563-.3908488-.7383185-.2018388-.1549613-.5383793-.26893-1.0104768-.3414555v-.3108235c.40325.0306319.9540304.0463983 1.6519136.0463983.5208467 0 .9296558-.0157664 1.2242891-.0463983z"/><path d="m3.3384 1.26155789c-.184.61010527-.27578947 1.53473685-.27578947 2.77431579 0 1.23873685.09178947 2.16126316.27578947 2.76631579.18357895.60505264.43031579.90736842.74063158.90736842.30947368 0 .55621053-.30231578.74063158-.90736842.18357895-.60505263.27578947-1.52757894.27578947-2.76631579 0-1.23957894-.09221052-2.16421052-.27578947-2.77431579-.18442105-.60968421-.4311579-.91452631-.74063158-.91452631-.31031579 0-.55705263.3048421-.74063158.91452631m3.49978947-.26821052c.64884211.62442105.97305264 1.63831579.97305264 3.04252631 0 1.40336843-.32421053 2.41557895-.97305264 3.03494737-.6488421.61978948-1.56842105.92926316-2.75915789.92926316s-2.1111579-.30947368-2.75957895-.92926316c-.64842105-.61936842-.97263158-1.63157894-.97263158-3.03494737 0-1.40421052.32421053-2.41810526.97263158-3.04252631.64842105-.62484211 1.56884211-.93684211 2.75957895-.93684211s2.11031579.312 2.75915789.93684211" mask="url(#b)" transform="translate(43 70)"/><path d="m68.9566114 76.0698529c0 .5675552.0771505.9581802.2326893 1.1727942.1551262.2146139.4257718.3216911.8106993.3216911v.4356618c-1.3416764-.0551471-2.1985835-.0827206-2.5711339-.0827206-.4352609 0-1.3973733.0206802-2.8883999.0615809l-.5404662.0211397v-.4356618c.5342777 0 .9348828-.125 1.2018153-.3736213.2673451-.2495404.4010177-.691636.4010177-1.3285845v-5.1056986c0-.6640625-.0466204-1.1516544-.1398611-1.4627757-.0932408-.3115809-.2483669-.5193015-.4657911-.6231618-.2174242-.1034007-.5499553-.1557904-.9971808-.1557904v-.4568015c1.2047033-.027114 2.189507-.1199448 2.9535859-.2794118.764079-.1594669 1.431204-.418658 2.0030255-.7784926z"/><path d="m54.768298 66-.768298-.7679599 6.2312689-6.2320401.7687311.7679599z"/><path d="m8 45.3598155 2.012715-2.3598155.4819176.3985648-.87462218 1.0259355 1.02636788.8467452.8746222-1.0259354.4789995.3952845-2.01271496 2.3594054-.47899947-.3952845.81542473-.9558175-1.02595105-.8467453-.81584158.9554075z"/><path d="m5 42.3971267 2.58966833-2.3971267.41033167.6028733-2.58878779 2.3971267z"/><path d="m2.01912193 37.2480064c.0518964-.2932281.19557972-.5385094.43104995-.734259l.27303703.5579259c-.09256149.1133287-.14561975.2448851-.15956207.3954617-.01394231.149784.01665333.3027381.09294878.458466.07474631.1533504.1758281.2718304.30208352.3550438.12664271.0828171.26993874.1240276.42911352.1240276.15994935 0 .325708-.043588.49766324-.1319527.27303703-.1394815.44925242-.3229472.52864617-.5500008.07900646-.2274499.05499469-.47075-.07164802-.729504-.09256149-.1913907-.22849907-.3273059-.40587632-.4073493-.17776454-.0808358-.37450611-.0907422-.59061202-.0309078l.43995754.9018745-.3717951.190202-.6576126-1.3460754.50076154-.2563765c.19093227-.0507205.38496285-.0578531.58325357-.0229827.19906529.0356629.38496285.1196687.55885452.2520176.17350438.1323489.31641312.3138334.42833894.542472.12741728.2611315.18473569.5202818.1700188.7774507-.0143296.257169-.0948852.4913552-.24166681.702955-.14678161.2115997-.3489452.383574-.60687806.5155267-.25832014.1323488-.51392927.1945608-.76760197.1874282-.25367271-.0067363-.48565736-.0804396-.69556668-.2211099-.20990932-.1410664-.37915355-.3423636-.50657083-.6034951-.15840021-.3241359-.21223304-.6332142-.16033664-.9268385"/><path d="m0 30.6089517 3.40474812-.6089517.14360162.5802905-1.47955993.2650177.30712218 1.2343934 1.48002316-.2654103.14406485.5763644-3.40428489.6093443-.14313839-.5759717 1.37857557-.2469572-.30758541-1.2340008-1.3790388.2465646z"/><path d="m1.5034.97624286c-.185-.02742857-.3355-.00557143-.451.06642857-.1155.07242857-.1935.20742857-.2335.405l-.0925.45385714 1.137.16971429.0925-.45342857c.0755-.37114286-.0755-.585-.4525-.64157143zm.952 1.18414285 1.373.20528572-.1285.63342857-3.7-.55371429.2355-1.15414285c.0755-.37457143.238-.64114286.487-.79971429.248-.159.5515-.21171428.912-.15771428.353.05314285.6135.19328571.7835.42085714.1695.22714286.2175.52242857.1435.88457143z" mask="url(#c)" transform="translate(0 21)"/><path d="m2.69662303 16.8039132.21207788-.4643727c.14739853-.3229352.06775933-.5453109-.2397976-.6663094-.14651853-.0576378-.27895721-.0629519-.39643603-.0167599-.11791883.0466007-.21471786.1524745-.28995711.3180299l-.21207787.4643727zm2.01825982-.2775608-1.48674513.1937612-.11307887.2485375 1.18534815.4668254-.25739743.5645235-3.04300957-1.1981307.49147509-1.0771321c.15003849-.3286581.3497965-.5449021.60103398-.6491407.2503575-.1038298.51699483-.1009684.79859202.0102195.2296777.0899313.39555604.2252371.49587504.4055085.10163898.1798627.12627874.3924277.07611924.6364686l1.53690463-.2264634z"/><path d="m5.55670228 11.3521327c-.0167143.1510069.01088373.2996665.08240538.44637.07152166.1459211.18463471.2777587.33856175.3947303s.31057502.1901278.46994393.2194685c.15975761.0289495.3097976.014866.44895387-.0426418.13993367-.0567254.26120952-.1541365.36421625-.2918422.10261803-.1369233.16286725-.2812796.17919285-.4322865.01632559-.1506156-.01127244-.2996664-.08279409-.4459787-.07152166-.1463124-.18424601-.2781499-.33778434-.3951216-.15470446-.1169716-.31096372-.1897365-.47072134-.2190772-.1593689-.0293407-.30902019-.014866-.44934257.0422506-.13915627.0575078-.26043212.1545277-.36343885.2918422-.10300673.1377057-.16286725.2812796-.17919284.4322864m.34905677-1.2389602c.23477761-.1017145.48199377-.13457607.74048236-.0997584.2588773.0348176.50259511.1392705.73154215.3129675.22894704.1740882.39570134.3818204.501429.6235878.10533896.2413763.1418772.4905767.10922601.745254-.03265119.2550686-.13099347.4921415-.29541554.71161-.16442206.2190773-.36421625.3798643-.59899386.4807964-.23477761.1017144-.48238247.1341848-.74203718.0981935-.26004341-.0352088-.50414993-.1404442-.73348567-.3141411-.22855834-.173697-.39492393-.381038-.49948548-.622023s-.13993367-.4890118-.10728248-.7440804c.03226248-.2554597.13099346-.4925327.29463812-.7116099.16442207-.2190773.36460496-.3798644.59938257-.4807964"/><path d="m11.2827823 6.99384578c.0404577-.2841896-.052357-.56744437-.2789199-.84836205-.2275148-.28372218-.4873958-.43937208-.778691-.46694969-.29081917-.02804503-.58735003.07572157-.88959257.30989754l-.3893455.30195145 1.43410517 1.78366368.3893455-.30195145c.3022425-.23417597.4735926-.49359246.5130983-.77824948m.6958718-.43095857c.0504531.29821211.0114233.59128264-.1166133.87827674-.1280366.28746152-.34508.5492151-.6492264.78572816l-.9976384.77310789-2.215176-2.75589126.99716238-.77264048c.3046224-.23651305.61352855-.38374944.92576651-.44217658.31223791-.05842714.61019671-.02944728.89292441.08693958.2822517.11685428.5354691.31270205.7563203.58894556.2198993.27297159.3550755.55856344.4064805.85771039"/><path d="m14.5330583 2.87057793.7089126 1.89592528c.0946001.25291586.2119672.41806615.3517085.49450714.1405264.07691285.2979317.06747569.4730009-.02736776.1727141-.09295602.2818379-.22743554.3269791-.40438227.0455337-.17694674.0208042-.39211397-.073796-.64502983l-.70852-1.89639714.5330582-.28783335.7085201 1.89545342c.1118716.2996298.160153.57708228.1440592.83330115-.0153088.25574702-.086357.47846397-.2123598.66815087-.1260027.18874318-.2936138.33973773-.5016557.45251178-.3226612.17411559-.6237332.19723663-.9032159.06936312-.2798752-.1278735-.5032258-.415235-.6712295-.86491563l-.70852-1.89545342z"/><path d="m23.2127787 1.15177758c.2814714.14464876.4914516.37022263.6295319.67633068l-.6340256.10477262c-.0935515-.14464876-.2181506-.2505942-.3729803-.31783633-.1548298-.06724213-.32886-.08483454-.5233163-.05277725-.159732.02619315-.2969953.08835303-.4113814.18608867-.1152031.09773565-.1952733.22401011-.2410278.37765055-.0453459.15403138-.0510652.32643706-.0163408.51760799.0339073.18882527.0992707.34832985.1969074.47851373.0964111.13018388.2165165.22283728.3586821.27835113.1421655.0551229.29291.06958778.453459.04300368.1944564-.03205729.3517372-.10477261.4742937-.21775502.122148-.11298241.2018097-.25293986.2393937-.41987235l.6340257-.10477261c-.0224687.33269215-.1405315.61299798-.3558224.83974469-.2148824.2267467-.5102436.3717864-.8873091.43394627-.2884163.047695-.5547725.02775693-.7982514-.05981421-.2438874-.08796209-.4465142-.23339273-.6082888-.43746476-.1621831-.20407204-.2683988-.44841116-.3198725-.73223548-.0518822-.28695186-.037584-.55240188.0437118-.79635006.0804788-.24433912.2197847-.44684738.4175092-.60752479.197316-.16028646.4412034-.26545001.7324794-.31314501.3770655-.06255082.706334-.0211109.9886225.12353786"/><path d="m30 .14021233-.0394598.46180735-1.0896177-.05165717-.2136093 2.44963749-.7870922-.03767478.212557-2.44924909-1.082778-.05126878.0394598-.46180735z"/><path d="m33 1.14552824-.5612553 2.85447176-.4387447-.14552824.561557-2.85447176z"/><path d="m37.4708016 3.54666523c-.1527998.01126252-.2945727.0656333-.4261066.16194725-.1319276.09709068-.2406202.23185254-.3280469.40467394-.0874266.17282141-.1303524.33942901-.1291709.50176463.0007876.16194725.0421381.30680654.1252328.43302442.0823071.12699461.2012389.22835728.3564015.30447637.1551627.07611909.3083562.10874156.4607622.09709068.1524059-.01126252.2941789-.0656333.4261066-.16233562.1315338-.09709068.2414078-.23146417.3280469-.40428558.0874266-.17243304.1303524-.34020574.1295754-.50215299-.0004045-.16155889-.0425426-.30641818-.1252435-.43263606-.0830947-.12699461-.2016327-.22835727-.3564015-.30447637-.1555565-.07611909-.30875-.10874155-.461156-.09709067m1.2909217.11689717c.1445297.21243441.2228987.4489473.2362883.70876195.0137835.26097975-.0441071.51924095-.173278.7759487-.1303524.25631939-.3040243.45865637-.5245601.60584583-.2189605.14757783-.4580054.22874564-.7167411.24350342-.2583419.01475779-.5115642-.03922463-.7588793-.16078216-.2481027-.12116917-.4434344-.28816513-.5875702-.50021117-.1437421-.21243441-.2225048-.44933566-.2351069-.71148049-.0133896-.26136811.0448948-.52040604.1748534-.77711379.1291709-.25631939.3032366-.45787964.5225909-.60390402.2189605-.1468011.4576117-.22719218.7155597-.24194997.2591295-.01398105.511958.03922464.7596669.16078217s.4434344.28855349.5871764.50059953"/><path d="m42.9671255 10-.4639408-.40195082.3427163-2.46128836-1.3819602 1.56187767-.4639408-.40195082 2.0328745-2.29668767.4639408.4015444-.3542223 2.47470027 1.3934662-1.57488316.4639408.40195082z"/></g></svg>