<svg height="72" viewBox="0 0 111 72" width="111" xmlns="http://www.w3.org/2000/svg" xmlns:xlink="http://www.w3.org/1999/xlink"><mask id="a" fill="#fff"><path d="m0 72h111v-72h-111z" fill="#fff" fill-rule="evenodd"/></mask><g fill="#959595" fill-rule="evenodd"><path d="m41.8402123 28.4442453c-.1067217.1681599-.2647406.3026878-.473467.4035838-.2093161.1019986-.464033.1521709-.7635613.1521709-.2959906 0-.5607312-.0463129-.7930425-.141144-.2329009-.0937285-.4186321-.2299104-.5595519-.4063405-.1397405-.1775327-.2199292-.3837353-.2393868-.6197105h.8879717c.0194576.158787.0866746.2905582.2045991.3958649.1161556.1047553.2706368.1576843.464033.1576843.1739387 0 .3060142-.0435561.3997642-.1301171.0925707-.0871124.1385613-.1984838.1385613-.3346658 0-.121847-.0377359-.2227429-.1120283-.3021364-.0748821-.0788422-.1698113-.1422468-.2847878-.1902137-.1137971-.0479669-.2724056-.1036526-.4728773-.1665058-.2606132-.0810476-.4728774-.1615438-.6397406-.240386-.1650943-.0799448-.3060141-.1946244-.4227594-.3456926-.1167453-.1516196-.1739387-.3484493-.1739387-.5926947 0-.3357684.1285377-.6004135.3867925-.7933839.2582547-.194073.6008254-.2905582 1.0271226-.2905582.4416274 0 .7942217.0992419 1.0560141.2982771.2623821.1995864.410967.4647829.446934.7972432h-.8997641c-.0229953-.1405927-.0866746-.2558235-.1892689-.3456926-.1025944-.0904204-.2423349-.1356306-.4198113-.1356306-.1533019 0-.2783019.0374914-.3732312.1130255-.0949292.0755341-.1415094.1852516-.1415094.3291523 0 .1146795.035967.2095107.1090802.2850448s.1662736.137836.2777123.1858029c.1132075.0479669.2665094.1014473.459316.1598897.2682783.0887664.485849.1720193.6533019.2497588.1680424.0766368.3119104.1929704.4292453.347898.1185141.1549277.178066.3583736.178066.6086837 0 .1995865-.0536557.383184-.1597877.5507925"/><path d="m49 25v.635055h-1.1035714v3.364945h-.7979324v-3.364945h-1.0984962v-.635055z"/><path d="m56 25-1.154846 2.6011854v1.3988146h-.6859756v-1.3988146l-1.1591784-2.6011854h.7827343l.7235237 1.7510584.7249679-1.7510584z"/><path d="m62.3729573 28.3880892h.6270427v.6119108h-1v-4h.3729573z"/><path d="m69.004496 25.635055v1.0364099h1.7818268v.6119108h-1.7818268v1.0764888h1.995504v.6401355h-3v-4h3v.635055z"/><path d="m14 36.4519936c-.426587.1052744-.7433906.2671911-.949888.48575s-.3445108.5538352-.4129947 1.0052566c-.068484.4519935-.1035101 1.130556-.1035101 2.033971v12.0230288c-.2755041-.0303236-.5029127-.0451994-.68118-.0451994-.1516057 0-.4061987.0148758-.7643017.0451994l-9.14705007-10.9376721v6.5081352c0 1.1151081.04129948 1.9172537.12337565 2.4064366.08259896.4903272.26557132.8484892.54787155 1.0739138.28177744.2254247.7528006.3919185 1.41411501.4971929v.4519936c-.56407767-.0451994-1.33569828-.0680851-2.31277072-.0680851-.72927558 0-1.30067215.0228857-1.71366692.0680851v-.4519936c.42606423-.1052744.74339059-.2671911.9493652-.48575.20702016-.2185589.34398805-.5538352.41299477-1.0064009.06900672-.4514214.1029873-1.1294117.1029873-2.0333989v-9.6274629c0-.5721437-.03764003-.9863758-.11292009-1.2426962-.07580283-.2557482-.21015683-.4291078-.40306198-.5195065-.19238238-.0903987-.50866318-.1504738-.9493652-.1807974v-.4519936c.41299477.0451994.98439134.0680851 1.71366692.0680851.74339059 0 1.37647498-.0228857 1.89977595-.0680851l8.44548173 9.7624888v-5.3329519c0-1.1151081-.0412995-1.9172537-.1238985-2.4070087-.0825989-.4897551-.2650485-.8479171-.546826-1.0733417-.282823-.2259968-.7538461-.3919185-1.41516052-.4971929v-.4519936c.56460042.0451994 1.33569832.0680851 2.31277072.0680851.7292756 0 1.3006721-.0228857 1.7141897-.0680851z"/><path d="m27.0444444 45.4916321-2.0225035-5.6501216-2.1333333 5.6501216zm7.2776372 5.6838793c.2295358.2340151.4556962.3581748.6779184.3724789v.4520097c-1.0672293-.0446288-2.4151899-.0680875-4.045007-.0680875-1.6888889 0-2.9327708.0234587-3.7333334.0680875v-.4520097c.5625879-.0297526.9631505-.1012731 1.2005626-.2145616.2362869-.1127164.3555556-.3124017.3555556-.5984838 0-.2712058-.0888889-.6328136-.2672293-1.0848233l-1.3108298-3.7059076h-4.4883263l-.3780591 1.0161636c-.4883263 1.2810757-.7336146 2.2600487-.7336146 2.9386354 0 .6173652.1704641 1.0396224.5113924 1.2650551.3409283.226577.8444445.3541696 1.5111111.3839222v.4520097c-1.1111111-.0446288-2.0815752-.0680875-2.9113924-.0680875-.6959212 0-1.2663854.0234587-1.7108298.0680875v-.4520097c.3701828-.0595051.7184248-.2935203 1.0447257-.700329.3257384-.4073809.6587905-1.0539265.9997187-1.9436418l4.9333334-12.9040195c.473699.0297525.8669479.0446288 1.1774965.0446288.2964838 0 .6812939-.0148763 1.1561181-.0446288l5.3777778 14.1021313c.1918425.4823344.4022503.8393649.6329114 1.0733801z"/><path d="m51.8507231 40.4741641c0 .6934383.0211702 1.2358305.0645962 1.627749h-.4934279c-.471715-1.9738959-1.0791362-3.3973896-1.8222636-4.2716252-.7436703-.8730914-1.5443372-1.3107814-2.4014579-1.3107814h-.021713v12.9270159c0 .632791.0607964 1.0922225.1823892 1.3788665.12105.2854997.3425226.47774.6644178.5761487.3218953.0978366.8326936.1464688 1.5329379.1464688v.4519936c-2.0155093-.0451994-3.5804738-.0680851-4.6954364-.0680851-1.0150828 0-2.4866814.0228857-4.4169672.0680851v-.4519936c.7002443 0 1.2121283-.0486322 1.5334807-.1464688.3213524-.0984087.5433678-.290649.6644178-.5761487.1215928-.286644.1823892-.7460755.1823892-1.3788665v-12.9270159h-.021713c-.871777 0-1.6762436.4331128-2.4117715 1.2993385-.7366136.8667978-1.340235 2.2942964-1.8119499 4.2830681h-.493428c.043426-.3919185.0645962-.9343107.0645962-1.627749 0-1.3107813-.0499399-2.8012158-.1498197-4.4741641 1.3570625.0451994 3.6944671.0680851 7.0105851.0680851 3.3020046 0 5.6312667-.0228857 6.9894149-.0680851-.099337 1.6729483-.1492769 3.1633828-.1492769 4.4741641"/><path d="m72 36.4432444c-.4334875.1032366-.7550216.2620191-.9640719.4763474-.2101114.2143283-.3501857.5431147-.4191616.985798-.0700372.4432443-.1050557 1.108672-.1050557 1.9945997v5.3413753c0 2.127012-.2865156 3.6940772-.8590162 4.6978294-.3777761.6648665-.933298 1.1748781-1.666035 1.5294736-.7337982.3540344-1.6803608.5313322-2.8402183.5313322-1.6909725 0-3.0036383-.3540344-3.9395892-1.0632254-.6849844-.5167444-1.1423482-1.2113477-1.3731524-2.0832486-.2297431-.871901-.345941-2.053512-.345941-3.5459551v-6.9589368c0-.5610688-.034488-.9672826-.1039946-1.2186415-.0705677-.2507977-.2063973-.4208016-.4096111-.5094505-.2026833-.0886488-.5268704-.1475611-.974153-.1772977v-.4432444c.7964072.0443244 2.0257712.0667672 3.6880922.0667672 1.6490563 0 2.8991131-.0224428 3.7517623-.0667672v.4432444c-.502994.0297366-.8701584.0886489-1.1004321.1772977-.2302736.0886489-.3878572.2586528-.4711589.5094505-.0838324.2513589-.1257485.6575727-.1257485 1.2186415v9.0421854c0 1.418382.2090502 2.412596.6287425 2.9809587.4191617.5683628 1.0829227.8528247 1.9907527.8528247 1.3275221 0 2.2703706-.4982292 2.829076-1.4952485.5592359-.9975804.8383233-2.412596.8383233-4.2444857v-5.1410738c0-1.0935231-.0413855-1.8801416-.1252179-2.3604166-.0838323-.4802749-.2690063-.831504-.5555219-1.0525651-.2870461-.2216222-.7645721-.3843322-1.4357613-.4875688v-.4432444c.5730311.0443244 1.3551125.0667672 2.3478359.0667672.7401653 0 1.320094-.0224428 1.7392557-.0667672z"/><path d="m84.5404795 36.5980994c-.1709449.1037977-.2866008.2878283-.3447108.5537749-.0609309.2659466-.0897038.6654277-.0897038 1.1973209v5.4513448h.6014104c1.0550071 0 1.7748942-.3209313 2.161354-.9639162.3864598-.6424238.5799718-1.5474279.5799718-2.7144511 0-1.2119086-.1675599-2.1281341-.5015515-2.7481151-.3339915-.6205422-.8801128-.9308132-1.6377997-.9308132-.34189 0-.5985895.0516183-.7689704.154855zm9.4595205 14.2051408c-.4456982.4438054-.9365303.7546376-1.4713681.9308132-.5337095.1772977-1.1582511.2659466-1.8713681.2659466-1.0251058 0-1.8200283-.1806642-2.3842032-.5431146-.5653032-.3613284-.9133991-.977943-1.0476727-1.849844l-.3334274-2.2162219c-.1489422-1.0340499-.3537377-1.8167409-.6132581-2.3491952-.2600846-.5318933-.6499295-.7978399-1.1700987-.7978399h-1.0025388v5.0973104c0 .5616299.0411847.9678437.1224259 1.2192026.0818054.2507977.2262342.4202405.4349789.5088894.2070522.0892099.5489421.1481222 1.0245416.1778588v.4432444c-.8614951-.0443244-2.1021157-.0667672-3.7212976-.0667672-1.7974612 0-3.1198872.0224428-3.9667137.0667672v-.4432444c.4750353-.0297366.8203103-.0886489 1.0363893-.1778588.2149506-.0886489.3599436-.2580917.4349788-.5088894.0739069-.2513589.1111425-.6575727.1111425-1.2192026v-10.9918996c0-.5610688-.0411848-.9678437-.1229901-1.2192026-.0818054-.2507977-.2262342-.4208016-.4338505-.5088894-.2087448-.0892099-.5506347-.1481222-1.02567-.1778588v-.4432444c.8468265.0443244 2.1241185.0667672 3.8330042.0667672l2.5624824-.0224428c.2973202-.0145878.6392102-.0224427 1.02567-.0224427 2.2572637 0 3.9401974.3186871 5.0465444.9526949 1.1069111.636252 1.6603667 1.6040958 1.6603667 2.9035312 0 1.1081109-.4157969 2.054073-1.2479549 2.836764-.8315938.7832521-2.2279266 1.262966-4.1895627 1.4402637 1.5159379.1037978 2.6595204.3876986 3.4318759.8539468.7729196.4651261 1.2479548 1.1485079 1.4267983 2.0495845l.4677009 2.3048707c.1038082.5464811.2301834.9229583.3785614 1.1299927.1489422.2070344.3571227.30971.6239774.30971.2679831 0 .4976023-.0953817.6905501-.2878283z"/><path d="m111 52c-1.018103-.0451994-2.731995-.0680851-5.141677-.0680851-3.50282 0-6.1216926.0228857-7.858323.0680851v-.4519936c.4786392-.0303236.8265337-.0903987 1.044252-.1807974.2165814-.0909708.362106-.2637583.4377105-.5195065.0744676-.2557483.1125541-.6705525.1125541-1.2432684v-11.2088682c0-.5721438-.0426341-.9863758-.1244917-1.2432684-.082426-.2557482-.2279505-.4291078-.437142-.5189344-.2097599-.0909708-.5542437-.1510459-1.0328829-.1813695v-.4519936c1.7366304.0451994 4.355503.0680851 7.858323.0680851 2.199922 0 3.76431-.0228857 4.692597-.0680851-.105164 1.4160558-.156893 2.6822099-.156893 3.7961738 0 .6934382.022738 1.2364026.067078 1.627749h-.515589c-.270016-1.7478992-.771962-3.0020383-1.505269-3.7629895s-1.608728-1.1414268-2.626831-1.1414268h-.292186c-.404172 0-.699769.0343287-.886222.1018416-.187022.067513-.314924.1962453-.381433.3844806-.067646.1888075-.101185.5006258-.101185.9371715v5.7855176h.224539c.777647 0 1.444445-.3083855 1.997552-.9263007.553675-.6179153.906117-1.3033435 1.056189-2.0568568h.515589c-.044339.6333631-.067078 1.3416771-.067078 2.1243697v1.0847846c0 .7689612.044908 1.8382978.134724 3.2097264h-.516725c-.134156-.8593599-.482619-1.5711067-1.043684-2.1358126-.561065-.565278-1.254012-.847917-2.076567-.847917h-.224539v5.8759163c0 .4371178.033539.7500804.101185.9377436.066509.1882353.194411.3169676.381433.3839084.186453.0680851.48205.1018416.886222.1018416h.741265c.867463 0 1.691722-.4256749 2.470506-1.2764527.777647-.8507777 1.331322-2.2107634 1.661026-4.0788128h.516726c-.045477.5418202-.067647 1.2352584-.067647 2.0791704 0 1.536206.05173 2.8012158.156894 3.7961738"/><path d="m51 60h10v-1h-10z" mask="url(#a)"/><path d="m65.8353386 12.349274c-1.2465717.2385705-2.5957094.0701366-3.7980988-.1471804-1.4080474-.2550419-2.6209564-.5642802-3.7055264-.9484371 2.5047149-.5244299 5.2366531-.1232703 7.5036252 1.0956175m-9.4266067 3.5498646c.9830559.8692679 1.5916143 1.9207844 1.7241612 2.9744263-2.2049065-1.3697876-4.0458352-3.334673-5.8231203-5.2490813.2524702.089796.5070443.1987201.7631964.3124263 1.3465078.5977545 2.4289739 1.1599094 3.3357627 1.9622287m-5.1409248-6.30963056c.0878386-.37671815.1746253-.75290497.2687756-1.12537242.3534583-1.3926351.9178345-3.13648416 2.1538866-4.27354601.0205132-.01912814.0378705-.03400558.051546-.04675768.0189352.03400559.0415524.08235728.0625915.1466491.2671977.81772812.2798212 1.76138319.0399745 3.06209693-.2482624 1.3485341-.619604 2.34532289-1.1692527 3.13701544-.5480708.7900986-1.2818123 1.3469401-2.0665739 1.5807286.2729834-.8182595.4670699-1.6588351.6590524-2.48081396m8.2715555-6.98177228c.25773-.66842234.5975128-1.37935166 1.1771424-1.58125984.0568058-.01965948.0957283-.02444152.102566-.03506826.0105196.02603553.0305068.08873333.0431303.2279437.2456325 2.60195882-1.1203365 6.27190564-3.1159032 8.40150558-.0862607.0611038-.1719953.12486427-.259308.18384271.5533306-2.4223668 1.161363-4.87714518 2.0523725-7.19696389m7.2043428 1.14928261c.3597701-.17480998.7631964-.34590059 1.1687267-.40115967-.2019761.56374888-.7137543 1.12271574-1.5516398 1.69496602-1.0130368.69233252-2.427396 1.32993729-3.9811398 1.80973489 1.3386182-1.1976343 2.7529774-2.32406941 4.3640529-3.10354124m-6.0508695 4.56950088c1.1524213-.2406958 4.0437313-.95746983 6.2228649-2.447871 1.3696509-.93674768 2.0513205-1.91812769 2.0841203-3.00099313.0066486-.25185389-.1727104-.46917085-.4183429-.50902115-.8436713-.13336567-1.6531539.19021876-2.2659202.48617364-2.2122703 1.07117602-4.0237441 2.71035163-5.7626327 4.33146177.954653-1.9935776 1.4674832-4.23157035 1.2949618-6.06202739-.0184092-.19393812-.0667994-.70880398-.4944208-.98031735-.2635158-.16630857-.594357-.19021875-.9588608-.0626978-.9625427.33474251-1.4385543 1.28211694-1.7778111 2.16466821-1.0298681 2.6800654-1.6868167 5.50465456-2.3048427 8.25485645-.1230793.0239102-.2303791.0929841-.3055942.1997829-1.2060712.6376047-2.3958371 1.0786147-3.4430626 1.386259.3387309-.2927668.6522148-.6322914.9225683-1.0228243.6343314-.9128375 1.057219-2.03449058 1.3317804-3.52861111.1688394-.91602552.3445166-2.28103108-.0736372-3.55942865-.1767291-.53718202-.5191418-.8543904-.9399255-.86979918-.3392569-.02656687-.5996168.17746666-.7800278.34536925-1.4301386 1.31505985-2.0586842 3.23637557-2.4458052 4.76343901-.0957283.38043751-.1846189.76300038-.2735094 1.14556324-.284029 1.21995044-.5617463 2.37295244-1.057745 3.44147174-2.3590186.348026-4.6833226.3974403-6.7472666.3756555-.2645677-.0223162-.4975767.218911-.499704.4952064-.0026065.2757641.217253.5015824.4902364.5042391.2598339.0026567.5233497.0042507.7905474.0042507 1.959274 0 4.1131606-.0823573 6.3038657-.4197565 0 0 .0005259.0005314.0010519.0005314.001052 0 .0021039-.0010627.0036819-.0010627.4249915-.0658858.850509-.1408044 1.2770785-.2274124.2046061.218911.4086862.4383533.6132922.6583269 1.884059 2.0313026 3.8328135 4.1311476 6.246534 5.6024207.0988841.0600411.3387308.2056275.6206559.2056275.1172935 0 .2430026-.0255042.3681857-.092984.1788331-.0982974.4707518-.355996.4186798-.9776607-.1167675-1.3602235-.8526129-2.7034442-2.0734116-3.7825903-1.0603749-.9383417-2.3516549-1.5754151-3.588759-2.1248179-.0783709-.0350683-.1567419-.0669485-.2345869-.1004228 1.1576812-.36556 2.2433031-.8166654 3.2458202-1.3495967 1.5116655.7082726 3.2300409 1.2252638 5.3797196 1.614734.8378855.1514312 1.7436224.2800148 2.6556711.2800148.9209903 0 1.8488183-.1312403 2.7224705-.5015824.1677875-.0711992.283503-.2290064.3008603-.4112551.0178833-.18278-.0641695-.360778-.2151257-.4633261-2.528384-1.7273776-5.6674303-2.40217602-8.6497348-1.915471.7432092-.56268625 1.4175151-1.17956887 2.0160799-1.84852255" mask="url(#a)"/><path d="m20 27h12v-1h-12z" mask="url(#a)"/><path d="m78 27h12v-1h-12z" mask="url(#a)"/><path d="m8.38187976 68.8738801c-.17725091.1031013-.31668078.2519641-.41603161.4449345-.10047982.1940731-.15015523.4201241-.15015523.678153 0 .258029.04967541.4846313.15015523.6776017.09935083.194073.2387807.3423845.41603161.4460372.17781541.1031013.383291.1543763.61812024.1543763.23370025 0 .43974033-.051275.61699125-.1543763.17725092-.1036527.31611629-.2519642.41659615-.4460372.1004798-.1929704.1495907-.4195727.1495907-.6776017 0-.2580289-.0491109-.4840799-.1495907-.678153-.10047986-.1929704-.23934523-.3418332-.41659615-.4449345s-.383291-.155479-.61699125-.155479c-.23482924 0-.44030483.0523777-.61812024.155479m1.63477284-.6202619c.3042619.1703653.5436071.4068918.719729.711785.1749929.3043418.2636184.6478291.2636184 1.0315644 0 .3837354-.0886255.7283253-.2636184 1.0348725-.1761219.3059959-.4154671.5436251-.719729.7139904-.30426197.1698139-.64295799.2541695-1.0166526.2541695-.3742591 0-.71351962-.0843556-1.01778154-.2541695-.30313294-.1703653-.54360711-.4079945-.71860006-.7139904-.17612193-.3065472-.2636184-.6511371-.2636184-1.0348725 0-.3837353.08749647-.7272226.2636184-1.0315644.17499295-.3048932.41546712-.5414197.71860006-.711785.30426192-.1692626.64352244-.2536182 1.01778154-.2536182.37369461 0 .71239063.0843556 1.0166526.2536182" mask="url(#a)"/><path d="m16.8071877 69.8930436h.664575c.4614946 0 .6925271-.2026245.6925271-.6067447 0-.1919007-.0570451-.3425992-.1694239-.4498378-.1123787-.107803-.2869366-.1619867-.5231032-.1619867h-.664575zm1.2994866 2.1069564-.9446663-1.5577819h-.3548203v1.5577819h-.8071877v-4h1.5402168c.4694809 0 .8271534.1140116 1.0735881.3409059.2458642.2263299.3685111.5243403.3685111.8945957 0 .3019614-.0844267.5548187-.254421.7591365-.1694238.2043177-.4147176.3403414-.7358813.4080711l1.0079863 1.5972908z" mask="url(#a)"/><path d="m26.2925408 68.3531042c.3310023.2355876.544289.5537694.6375291.9539911h-.8653846c-.0815851-.1779379-.2121212-.3192904-.3892774-.4246119-.1771562-.1064302-.3869464-.1596453-.6287879-.1596453-.2377622 0-.4481352.0526608-.6311188.155765-.1829837.1042129-.3257576.2527716-.4265735.4456763-.1025641.1929046-.1520979.4190687-.1520979.6784922 0 .4113082.1153847.732816.3479021.962306.231352.2300444.5483683.3447894.9498835.3447894.2960373 0 .5506993-.0831486.7628205-.25.2132867-.1668515.3502331-.3985588.4125874-.695122h-1.3974359v-.5626386h2.0874126v.7566519c-.0588578.2605322-.1719114.4994457-.3420746.7178492-.1689977.2189579-.3916084.3946785-.6666667.5260533-.2744755.1313747-.5897435.1973392-.9446387.1973392-.4055944 0-.7628205-.0842572-1.0728438-.2533259-.3100233-.1685145-.5501165-.404102-.7196969-.7062085-.1689977-.3021064-.2540793-.6480044-.2540793-1.037694 0-.3891352.0850816-.7350332.2540793-1.037694.1695804-.3021064.4079254-.5388027.7167832-.70898.3076923-.1707317.6643356-.2560976 1.0705128-.2560976.5029137 0 .9201632.118071 1.2511655.3531042" mask="url(#a)"/><path d="m32.6121612 70.572652-.6118682-1.7071082-.6118681 1.7071082zm.2232967.6137596h-1.6644689l-.2942124.8135884h-.8767766l1.5290842-4h.9476924l1.5232234 4h-.8767766z" mask="url(#a)"/><path d="m42 72h-.7072642l-1.5854716-2.7191645v2.7191645h-.7072642v-4h.7072642l1.5854716 2.7417443v-2.7417443h.7072642z" mask="url(#a)"/><path d="m46 72h1v-4h-1z" mask="url(#a)"/><path d="m55.3186716 68.3785506c.3436162.2527366.5709225.5952612.6813284 1.0292366h-.8773432c-.0903321-.2117224-.2326199-.3779964-.423321-.5010392-.1912915-.1224886-.4227306-.1834558-.6907749-.1834558-.2214022 0-.420369.0526535-.5980812.1557434-.1777122.1036442-.3164576.2521824-.4156458.4456145-.0980073.192878-.1476014.4184565-.1476014.677844 0 .2560621.0495941.4810863.1476014.67341.0991882.1928779.2379336.3414161.4156458.4450603.1777122.1041984.376679.1557434.5980812.1557434.2680443 0 .4994834-.0609672.6907749-.1834558.1907011-.1219343.3329889-.2893168.423321-.5004849h.8773432c-.1104059.4339753-.3377122.7764999-.6813284 1.0286823-.3442067.2527365-.7763838.3785506-1.2977122.3785506-.3991144 0-.7521771-.0842455-1.0580074-.2532908-.3064206-.1684911-.5431734-.4051545-.7108487-.7094361-.1682657-.3037273-.2521033-.6490231-.2521033-1.034779 0-.3885271.0838376-.7354856.2521033-1.0397672.1676753-.3037273.4038377-.5403907.7078967-.7094361.3046494-.168491.6571218-.2532908 1.0609594-.2532908.5213284 0 .9535055.1263683 1.2977122.3785506" mask="url(#a)"/><path d="m68.024581 71.2097093c.1111732-.0925769.1675978-.2274908.1675978-.4053063 0-.1772509-.0569833-.3138583-.1703911-.4098221-.1145251-.0970929-.2759776-.1450748-.4854749-.1450748h-.74581v1.0990686h.7513966c.2094972 0 .3703911-.0462885.4826816-.1388654zm-1.2340782-1.5325995h.7122905c.1977654 0 .3480447-.0440305.4513966-.1326559.1027933-.0886255.1536313-.216201.1536313-.3821621 0-.165961-.0497206-.2946655-.150838-.3855489-.1011173-.0908835-.2564245-.1360429-.4653631-.1360429h-.7011173zm1.9932961.6034434c.1441341.1795089.2162011.3900649.2162011.6316681 0 .3358735-.1117318.6017499-.3335196.7959356-.2223463.1947502-.5446927.2918431-.9675977.2918431h-1.6988827v-4h1.6648045c.4005586 0 .7078212.08919.922905.2664409.2150838.1778154.3223464.4273214.3223464.7479537 0 .2489416-.0642458.4532882-.1938548.6124753-.1284916.1580581-.2977653.2619249-.5067039.3110358.2385475.049111.4307263.1631386.5743017.3426475z" mask="url(#a)"/><path d="m74.004496 68.635055v1.0364099h1.7811169v.6119108h-1.7811169v1.0764888h1.995504v.6401355h-3v-4h3v.635055z" mask="url(#a)"/><path d="m83.6121612 70.572652-.6118682-1.7071082-.6118681 1.7071082zm.2232967.6137596h-1.6644689l-.2942124.8135884h-.8767766l1.5290842-4h.9476924l1.5232234 4h-.8767766z" mask="url(#a)"/><path d="m89.7454867 68v2.3230855c0 .3102292.0647788.5427613.1943363.6981554.1300885.1559531.3175221.2330911.5628319.2330911.2415929 0 .4263716-.077138.5569911-.2330911.1295575-.1553941.1943363-.3879262.1943363-.6981554v-2.3230855h.7460177v2.3230855c0 .3666853-.0647788.6757966-.1943363.9284517-.1300885.2520961-.3095575.4404695-.538938.5634432-.2283186.1235327-.4890266.1850196-.78.1850196-.4518584 0-.8123894-.1419788-1.0821239-.4259363s-.4046018-.7009502-.4046018-1.2509782v-2.3230855z" mask="url(#a)"/><path d="m100 68v.635055h-1.1034223v3.364945h-.7982325v-3.364945h-1.0983452v-.635055z" mask="url(#a)"/><path d="m107 68-1.154661 2.6011854v1.3988146h-.686347v-1.3988146l-1.158992-2.6011854h.782609l.723889 1.7510584.724851-1.7510584z" mask="url(#a)"/></g></svg>