<svg height="94" viewBox="0 0 93 94" width="93" xmlns="http://www.w3.org/2000/svg" xmlns:xlink="http://www.w3.org/1999/xlink"><mask id="a" fill="#fff"><path d="m.47712419.1548095h4.35287581v3.69505717h-4.35287581z" fill="#fff" fill-rule="evenodd"/></mask><mask id="b" fill="#fff"><path d="m0 .2908h3.87044739v3.65738827h-3.87044739z" fill="#fff" fill-rule="evenodd"/></mask><g fill="#959595" fill-rule="evenodd"><path d="m88.8408875 32.0287747c-.1570524-.1278293-.342784-.2037859-.5576499-.2278697-.2144107-.0245469-.4424782.009263-.6837471.1009667-.2408137.0912405-.4347393.2176804-.5813216.3797829-.1465823.1616393-.2376272.3422677-.2735899.5442011-.0364179.201007-.0145672.4098876.0655523.6271049.0796643.2176804.1980227.3899722.3546199.5173384.1570524.1287556.342784.2047122.5576499.228796s.4429334-.0101893.6837471-.1014298.4347393-.2176805.5808664-.3797829c.1470375-.1611762.2380823-.3427309.2740451-.543738.0359627-.2014701.0141119-.4103507-.0655523-.6280312-.0796643-.2172173-.1975674-.389509-.3546199-.5173384m1.1344193 1.2954302c-.0546269.3422678-.1943808.6484098-.4183512.9198156-.2239705.2704796-.5153141.4742655-.8735757.6104316-.3578064.136166-.7092397.1764601-1.054755.1222715-.3455154-.0541885-.6496053-.1926703-.9113594-.4135928-.261754-.2218488-.4561348-.5062228-.5831425-.8526589-.127918-.3468993-.164336-.6910196-.1092538-1.0337505.0550821-.3418046.1952913-.6484098.4210826-.9202788.2257913-.2714058.5180454-.4747286.8758518-.6108947.3582616-.136166.7092397-.1764601 1.0529341-.1222715.3436945.0551148.6464187.1935966.908628.4159086.2612988.2213856.4561349.5057596.5835977.8521957.1270076.3468993.1629703.6914828.1083434 1.0328242"/><path d="m90.0851861 39.2444558.1173082.7030334c.0804022.4889115.3075496.6918175.6801239.608208.1779394-.0392557.3066708-.1300026.385755-.271221.0795236-.1417283.0984159-.3380067.056677-.5883253l-.1164295-.7025236zm-1.7143692 1.8103492 1.2701797-1.3209279-.0623886-.3762426-1.4366958.3211827-.1419122-.8544481 3.6879587-.8243691.271083 1.6298751c.0821597.4970686.0408601.8998216-.1252166 1.2067295-.1651981.3074178-.4187068.4991079-.7600868.57558-.2785521.0621973-.5267885.0249808-.7447093-.1136886-.2174815-.1376497-.3861944-.3685954-.5056994-.6943665l-1.2956624 1.3958705z"/><path d="m4.4786 3.1432c-.2475.31066667-.5875.51422222-1.021.61022222l-.023-.796c.1915-.08044444.342-.20266666.452-.36888889.1105-.16533333.1625-.36.156-.58222222-.0065-.21866667-.069-.41066667-.1865-.57644444-.118-.16622223-.2835-.29333334-.4955-.38222223-.2125-.088-.4605-.12888888-.743-.12222222-.4475.01022222-.7935.12488889-1.0375.344s-.3605.51333334-.3495.88311111c.0085.27244445.1055.504.293.696.187.19111111.4435.31111111.7675.36133334l-.0375-1.28533334.611-.01422222.0565 1.92044445-.823.01911111c-.284-.04755556-.5475-.14666667-.79-.29688889s-.4395-.35066667-.59-.6c-.1505-.24933334-.2305-.53733334-.24-.86355556-.011-.37288889.071-.70444444.246-.99333333.1755-.28977778.425-.51644445.749-.68.325-.16311111.6985-.25022222 1.122-.26044445.4235-.00933333.8025.05955556 1.1355.208.3335.14844445.597.36266667.791.64088889.1945.27955556.2965.60533334.3075.97822223.014.46311111-.1035.84933333-.3505 1.16044444" mask="url(#a)" transform="translate(88 45)"/><path d="m89.4923534 54.8224322 1.6507867-.3602896-1.4936737-.8634188zm-.5932446.1330225.214325-1.6649896-.7111893-.414284.1126636-.8761811 3.4850919 2.1185422-.1219056.9473555-3.8780944.9341023.1131038-.876672z"/><path d="m86 62.6249869.2516179-.8544537 3.2381918-.9806499-2.6726553-.9349038.2521009-.8549795 3.9307447 1.3750131-.2521008.8549795-3.2599247.9722369 2.6943881.942791-.2516179.8549795z"/><path d="m87.6483412 69-3.6483412-2.1219791.3516588-.8780209 3.6483412 2.1219791z"/><path d="m83.6747202 74.9123455c-.3854742.1291471-.7855118.1157232-1.1996576-.0411975l.4532849-.6887846c.2216363.0462893.4318949.0291622.6316861-.0523069.1997912-.082395.3690904-.229132.5078975-.4406741.1142315-.1735848.1747605-.3592048.1811319-.557323.0063715-.1976553-.0441452-.3897558-.15155-.5753759-.1083151-.18562-.2685121-.3513357-.4824116-.496684-.2107138-.1434968-.4209724-.2305207-.6312311-.2606087-.2093484-.030551-.4027681-.0050918-.5802592.0763773-.1779462.081932-.3235798.2096905-.4382664.3837382-.1388071.2110792-.2070729.4263244-.2052525.6452727.0013654.2194112.0659903.423547.1929647.6133331l-.4532849.6901733c-.2999144-.3300427-.4655727-.7012828-.4951545-1.1132574-.0304921-.410586.0901108-.8216349.3595332-1.2312951.2066177-.3138414.458291-.5443621.7554747-.6897104.2967287-.1467371.6143921-.2004326.9516252-.1620125.337233.0379572.6644537.1661785.9821172.3818866.3203941.2175597.5625101.4781684.726348.7809003.1633828.3022691.2357445.6198136.2175403.9535594-.0182042.3337457-.1319805.6591594-.3399636.9757782-.2698775.4101231-.5970982.6795267-.9825723.808211"/><path d="m79.9524419 77.6997124c.0545469.168923.0621718.3390191.0228745.5114614-.0381242.1736153-.1184782.3261152-.2398891.4586729-.1243435.1366634-.2698019.2316826-.4369618.284471-.1665733.0527884-.3360793.0598269-.5091045.0211154-.1730251-.0398846-.3272814-.1208269-.463942-.2457595-.1331414-.1208269-.2258125-.2651153-.2785998-.4316922-.0533739-.1671634-.0609987-.3360864-.023461-.5073556.0375376-.1706826.1184782-.3243556.2428217-.461019.1214109-.1325576.2662828-.2264038.4346157-.2809518.1683329-.0545481.3378389-.0633461.5091045-.0258077.170679.0369519.3225893.1161346.4557306.237548.1360741.1243461.2316778.2709806.2868112.4393171"/><path d="m20.3830075 83.9220865c-.1625641.0698384-.3315837.0927267-.5076459.0686647-.1754753-.0228882-.335105-.0886185-.4783022-.1983646-.1473053-.1120937-.2541163-.2488361-.3221937-.4096406-.0674905-.1613913-.0892048-.3298252-.0657299-.5058884.0228881-.1754764.0903786-.3362809.2030584-.484174.1085716-.1431981.2441395-.2488361.4055298-.3169139.1619772-.066904.3292362-.0892054.5029509-.0680778.1737146.0223014.3339312.0897923.4806496.2018859.1437841.1085723.2500083.2441411.3198463.407293.0692511.1637389.092726.3315858.0710117.5053016-.0223012.1737157-.0874442.3315858-.1966027.4753708-.1115061.1467194-.2494214.2552918-.4125723.3245433"/><path d="m14.1114435 79.2091223c-.1620009.1669662-.2416647.3400138-.2395261.5196959.0026733.180235.1037234.3742917.3042195.5838287l.4603393.4793365.9976689-1.0228058-.4608738-.4798894c-.3769329-.3925363-.7308754-.419074-1.0618278-.0801659zm2.0413184.0265377 1.2040464-1.23566.6431917.670076-3.2437608 3.329924-1.171967-1.2212854c-.3796061-.3958535-.5752903-.7883898-.5838448-1.1787146-.0096238-.3892191.1432879-.7463718.4587352-1.0703525.3095661-.3173462.6560235-.4660677 1.0388375-.447823.3828141.0187975.7581429.2194886 1.1259866.603179z"/><path d="m10.5784874 75.1492963-.4305143-.5590001c-.29969215-.3882492-.63169893-.45714-.99549915-.2076567-.17356085.1200669-.27258956.260309-.29656493.4212184-.02345417.1614014.0411751.3415018.1949302.5403011l.4310355.5590001zm1.053874-2.398386-.7891025 1.7596694.2303721.298691 1.4030804-.964472.5232886.6790671-3.60203908 2.4761342-.99914759-1.2956402c-.30438298-.3946462-.43468392-.7661647-.3903816-1.1135715.04430232-.3478988.23349928-.6357642.56654847-.8650723.27258956-.1864974.55508199-.2716268.8485197-.2553883.29448011.0167307.57593014.1387659.8448713.3665978l.7849328-1.8369255z"/><path d="m6.26569805 69.0518114c.16928366.1102622.36177556.165624.57793077.1660962.21570014.0009118.43868131-.0567567.66894348-.1734778.22980712-.1167211.40955724-.2620458.53834024-.4382808.128783-.1757737.20068304-.3649265.21524508-.5683811.01547216-.2029932-.02821394-.4073705-.13014819-.6140545-.10147918-.206684-.23708813-.3644651-.40637179-.4751887-.16928366-.1098009-.36177556-.1647013-.57793077-.1660881-.21570014-.0004586-.43913637.0572099-.66894348.1734697-.22980712.1167211-.40955724.2629685-.53834024.4387422-.12923806.1757737-.20068304.3649264-.2161552.568381-.01456204.2029932.02912407.4073705.13060325.6140545.10193424.206684.23754319.3653878.40682685.4747274m-1.26280148-1.1616749c.01911267-.3446271.12559756-.6634188.32081984-.9559136.19385709-.2920334.46279968-.5250143.80409737-.6980199.34175276-.1730056.68714603-.2509734 1.03663487-.2339035.34857872.0161472.66530298.1204119.9488076.3118714.28304956.1919208.50603072.4525826.66803336.7819853.16291277.3303253.23481282.6675709.21570014 1.0117367-.0186576.3446271-.12605261.6643414-.32264009.9568362-.19658747.2934175-.46553005.5263984-.80728281.699404-.34175276.1734669-.68623591.2509734-1.03344943.2334422-.34812365-.0175312-.66302766-.1222573-.94653228-.3137168-.28304956-.1909982-.50603072-.4521213-.66894349-.781524-.1624577-.3303253-.23390268-.6675709-.21524508-1.012198"/><path d="m5.07221844 59.9379269c-.32630601-.16065-.71325771-.1828725-1.16192848-.0675934-.45296426.1157421-.7653164.3180593-.9370564.6055627-.17174001.2875034-.18837732.6356556-.0472285 1.0439938l.18140038.5263951 2.84712728-.7291753-.18193707-.5263951c-.14061213-.4088011-.3740712-.6926007-.70037721-.8527878m-.19267082-.8949179c.38641501.072223.72345477.234262 1.01111928.4861168.2882012.2518548.50287621.5838032.6450984.9953821l.4642347 1.3490899-4.39815421 1.1264022-.4642347-1.348627c-.1416855-.4115789-.17442344-.7898241-.09606706-1.1361245.077283-.3444485.25385319-.6384334.52971058-.8810289.27585738-.2425954.63382795-.4199123 1.07444841-.5328766.43579026-.1115754.8468929-.1310201 1.2338446-.058334"/><path d="m.27576876 55.0919564 2.20615008-.3273055c.29527652-.0442159.50808842-.1558341.63976579-.3353937.13167736-.180099.18222019-.4189726.15207184-.7176996-.029705-.2933347-.12591371-.5074044-.28951287-.6438266-.16315579-.1353438-.39148523-.1817166-.68676175-.1380399l-2.20615007.3289232-.09133178-.9075044 2.20615008-.3278447c.34847949-.051765.64996302-.017255.90578067.1046083.25581764.1218634.45621552.3138251.60119363.5753459.14542147.2609817.23586653.5688753.27133518.9226025.0549764.5494634-.03591201 1.0072598-.27266526 1.3760851-.23675324.3693645-.61671116.5915224-1.13854369.6691698l-2.20615007.3289232z"/><path d="m.42062222.86457778c.25777778-.30088889.59866667-.492 1.02222222-.57377778l-.03555555.796c-.208.07288889-.37511111.19377778-.50088889.36222222-.12622222.16888889-.19511111.37466667-.20577778.61866667-.00888889.20044444.03333334.384.12622222.54933333.09333334.16622222.23111112.29777778.41377778.396.18222222.09777778.39866667.15288889.64977778.16355556.24666667.01155555.46577778-.02444445.656-.10488889.19066667-.08133333.33955556-.20044445.44711111-.35733333.10755556-.15688889.16577778-.33555556.17511111-.53644445.01066667-.24355555-.03911111-.45466667-.14977778-.63466667-.11022222-.17822222-.26577777-.31422222-.46666666-.40533333l.036-.79555555c.41511111.11866666.73688889.34.96666666.66266666.22977778.32222222.33422223.72044445.31288889 1.19377778-.016.36177778-.112.67822222-.28755555.94844444-.17555556.27022223-.41333334.47511112-.71422222.61466667-.30088889.13866667-.63777778.20044445-1.01022223.18355556-.37644444-.01688889-.708-.108-.99511111-.27377778-.28711111-.16533333-.50577778-.38977778-.65644444-.67244445-.15066667-.28355555-.21822222-.60755555-.20177778-.97377777.02088889-.47244445.16044444-.85955556.41822222-1.16088889" mask="url(#b)" transform="translate(0 44)"/><path d="m.70807048 37 .72221014.1257622-.25995214 1.0577744 3.82967152.6667683-.1881662.7646341-3.83021535-.6672256-.25940831 1.0522866-.72221014-.1262195z"/><path d="m6.76757006 32.8540017c.12189128.1403802.19592895.3112042.22346735.5137407.02708695.2021136-.00722319.424946-.10293042.6684972-.09435288.2397457-.2230159.4397452-.38463471.5983071-.16116736.1589848-.34671297.2668069-.5552825.3238892-.20902097.0566595-.42616803.055391-.65144117-.0038055l.28396154-.7205055c.15349272.0346722.29705356.0215645.43158542-.0393233.13498331-.0608878.23294778-.1695556.29479632-.3268491.05552825-.140803.05778549-.2625786.00722318-.3653267-.0505623-.103171-.13904634-.1767438-.26590357-.2202954-.11286229-.0389006-.2175985-.0410147-.31511153-.005074-.09796447.035095-.18689996.0917545-.26770937.1691327-.0808094.0778011-.18283692.1881602-.3056311.3315002-.15800721.1852004-.3011166.3323459-.42707093.4414365-.12640577.1086678-.27854415.1864689-.45596368.2325575-.17741953.0465116-.37831441.0304439-.60403901-.0473571-.31149994-.1078222-.51555497-.2972508-.61261654-.5691317-.09661013-.2714581-.07719782-.5805482.05913984-.9264247.14085215-.3585614.34626153-.6122605.61442234-.7615202.26861227-.1492597.56205424-.1852004.88122882-.1078221l-.28712169.7298078c-.137692-.0253699-.26454922-.0109936-.38102311.042706-.11692534.0545453-.20315214.1543337-.26003473.2980965-.04965941.1247354-.05372246.2380543-.01399493.3386883.03927608.1010568.12640577.1746296.26003473.2211411.10563911.0367864.20540938.037632.29885937.002537.09344998-.0350951.18012822-.0909089.26048618-.1665958.0808094-.0761097.17877387-.1830862.29524776-.3209294.1679391-.1890058.31466009-.3399568.43971151-.4511616.12550288-.1112048.2789956-.1902743.46002672-.236363.18193403-.0465115.38869775-.0295982.62074264.0507398.18509416.0638476.33813544.1657501.45957527.3057075"/><path d="m6.14844245 27.5229537c-.094607-.150438-.14396717-.3138042-.14808052-.4918616-.00470097-.1774698.03643251-.3449495.12104995-.5036145.08814317-.1633662.20684263-.2902982.35551077-.382559.14866815-.0922608.31261444-.1404479.49007601-.1445615.17687396-.0047012.34669646.0370219.51005513.1245815.1586577.0857966.28440862.2021509.37607751.3520012.09284414.1492627.14161669.3108659.14631766.4859851.00587621.1757068-.03525727.3449495-.12281281.5071404-.08520506.1598403-.20272929.2855971-.35316029.3796208-.15043101.0946113-.31320205.1451491-.48831315.1498503-.17511109.0052888-.34199549-.0346713-.50124081-.1198803-.16277105-.0875596-.29146007-.2062645-.38547945-.3567024"/><path d="m11.1983674 15.205139c.4652549-.1697845.9410959-.2344209 1.4269935-.192999.486427.041422.9569749.1788882 1.4116438.4110331l-1.3280143 1.2745211c-.273119-.0846646-.5425328-.0964994-.8087709-.0355045-.266238.0619053-.4996594.1889023-.7002642.3819012-.2778827.2662838-.3874478.5717137-.3265783.9140137.0603403.3423.283705.662751.6700942.9604427.3874478.2981469.7828351.4551861 1.1877498.4706624.4049147.0168419.7463134-.1092446 1.024196-.3755285.2011341-.1929989.320756-.4073916.3609828-.6436332.0391682-.2357864-.0047637-.4661106-.1328544-.6900621l1.3280144-1.2749763c.4890734.5544166.7177312 1.1507105.6854438 1.787971-.0312287.638171-.34034 1.2381063-.9262754 1.8007163-.4488467.4310613-.950094.7232907-1.5026835.8785092-.5531188.1552185-1.1162943.1688741-1.6895265.0418771-.5732322-.1269969-1.1099426-.384177-1.61119-.7697197-.50124734-.3869082-.85693713-.8179694-1.06601073-1.2936389-.21013221-.4761247-.25565203-.9595324-.13708877-1.4488574.11856326-.4888699.4027975-.9495183.85164413-1.3805795.38903567-.3732527.81671037-.645454 1.28249457-.8161487"/><path d="m19.8579706 9.62444901c-.0586901.35072063.0586901.71816379.3537267 1.10187739.2886918.3755785.6339588.6105974 1.0363296.705057.4023708.0953635.8042128.0298293 1.2055262-.1961505.3954972-.2219121.6223264-.5093584.6804878-.8632428.0576326-.3529804-.0576326-.7172598-.3457957-1.09238624-.2955654-.38371368-.6424186-.62325225-1.0400307-.7177118-.3981409-.09400759-.7973393-.0280215-1.1981238.19750633-.4018421.22552783-.6323726.51387803-.6921201.86505062m1.4418728-2.61774984c.6043493-.03480089 1.1801466.0659861 1.7258059.30236095.5461879.23682682 1.0019614.59342292 1.3673205 1.06933635.3664165.47591343.5657513.9748768.6011769 1.4991499.0348968.52382113-.0861846 1.01600513-.3648303 1.47655193-.2775883.4605468-.6815453.8397409-1.2113424 1.1371303-.5292683.2973894-1.098192.4646144-1.7051851.5012231-.6080504.0370607-1.185434-.0623704-1.7342657-.2978413-.5493604-.235471-1.0061914-.5902592-1.3715504-1.0661726-.3658878-.4754615-.5662801-.9757808-.6011769-1.4991499-.0348968-.52382119.0877708-1.01690908.3685315-1.47881177.2807607-.4628066.6857752-.84245264 1.2150435-1.13984204.5356132-.30055311 1.1055944-.46823011 1.7104725-.50393492"/><path d="m32.284228 2 .494174 1.25156312-2.5296504.8003858.3968997 1.00478914 1.8882646-.59784488.4660841 1.18032459-1.8887849.59737928.8723471 2.20885991-1.7540574.55454304-2.2295048-5.64413995z"/><path d="m42.8469558 0 .1530442 1.43342981-2.2712654.31657019.122879 1.15028944 1.6954641-.23603474.1441722 1.35137482-1.6954642.23654125.2701564 2.52901592-1.5756904.21881331-.6902517-6.4646165z"/><path d="m50.3772404 1.63479543-.1034044 1.09244379 2.1958851.19712495-.1320395 1.39019536-2.195885-.19712496-.1134797 1.19461851 2.4838265.22344268-.1389331 1.46450424-4.3732103-.39218577.6267897-6.60781423 4.3732103.39321784-.1389331 1.46502027z"/><path d="m60.2766174 3.80181584-.3270504.96043092 2.020377.59570432-.4156903 1.22366014-2.020377-.59570432-.3571065 1.05101972 2.2842588.67348736-.4381049 1.28958602-4.0229241-1.1852429 1.9770759-5.8147571 4.0229241 1.1852429-.4391238 1.28958602z"/><path d="m47.0848226 79c-2.7873864 0-5.6130976-.3655256-8.4181724-1.10881-9.9044838-2.6227811-17.674084-9.4542449-21.3178806-18.7406514-3.0841574-7.8624713-3.1328003-16.1609309-.1351192-23.3672176 3.3180364-7.9769732 9.9693409-14.2202687 18.7294878-17.5799729 5.1723634-1.9837228 10.5987509-2.7289645 15.2778063-2.1006715.2530414.0337635.4304161.2657034.3965134.518195-.0343939.2520023-.2653249.4315845-.5203317.3939065-4.5277219-.6077414-9.7924577.1179273-14.8218404 2.0483137-8.5213544 3.2672219-14.9874228 9.3314244-18.207682 17.0725431-2.9053087 6.9851118-2.8547004 15.0398877.1424893 22.6802055 3.5352099 9.009938 11.0778099 15.638332 20.6943669 18.1852677 9.633754 2.5547649 19.5161273.5201523 27.111301-5.5773243 2.1741909-1.744443 4.0466975-3.6978277 5.5649461-5.8043711 3.0202828-4.1895991 4.9227613-9.4777325 5.3571081-14.889665.4382776-5.4613543-.8927694-10.1231519-3.1829172-15.8751652-.1051473-.2647247-.2731865-.5994229-.4520352-.9546727-.5748708-1.1430628-1.2902656-2.5655301-.958118-3.6484059.4923252-1.5996029 2.1142471-3.0499616 3.4167963-4.2145547.3149506-.2818511.6131955-.5485331.8736071-.7980888.3822645-.3655256.7954836-.7344765 1.2175469-1.1122353 2.0759224-1.8535624 4.2225982-3.7707371 4.2225982-6.5231892 0-2.128563-1.079971-4.2659338-2.8183411-5.5792816-4.1110634-3.10525537-8.9198332 1.0564522-10.2951011 2.4055208-1.1664473 1.1435521-1.5555906 1.5624141-1.9324504 1.9670858-.3837385.4129901-.7812347.839192-1.9629136 1.9988919-.1817968.1795822-.4751283.1771356-.653977-.004404-.1798314-.1810501-.1773746-.4731771.0044221-.6512913 1.16743-1.1450201 1.5570646-1.5638821 1.9339244-1.9690431.3842299-.4125008.7812347-.8391921 1.9619309-1.9974239 5.9707951-5.85477151 10.3142635-3.3802559 11.5023299-2.4828342 1.9643876 1.4831436 3.1848826 3.9023655 3.1848826 6.3127796 0 3.163485-2.4070873 5.3130889-4.5301786 7.2092226-.4142018.3699296-.8190681.7315406-1.1944538 1.0902157-.266799.2554276-.5729055.5294495-.8957175.8181511-1.2180383 1.0897264-2.7333388 2.4446668-3.1504887 3.8005859-.2235609.7295833.425994 2.0218902.9001396 2.9657977.1881842.3738442.3655589.7266474.4854465 1.0280715 2.3387907 5.8748338 3.6978443 10.6486868 3.2448264 16.2871767-.4471217 5.576835-2.4105267 11.0298708-5.527604 15.3540343-1.5673829 2.1735808-3.4968852 4.1876418-5.735442 5.9839532-5.6145717 4.5066817-12.4393201 6.8593554-19.5117053 6.8593554"/><path d="m46.0162831 73c-3.311159 0-6.5537132-.6650863-9.5698718-1.9952588-.2332561-.1032712-.3395935-.3775081-.2376664-.6127095.101437-.2352014.3724257-.3414373.607642-.2401426 5.8122919 2.5659681 12.5125253 2.5560857 18.8648346-.0227295 6.3518193-2.5793093 11.3428145-7.3401609 13.693507-13.0610887 2.3095298-5.6206214 2.2683669-12.1034831-.1141779-18.2542958-2.8392563-7.3268196-8.6755599-12.9247114-15.6119896-14.9748176-7.4392045-2.1998247-16.0192079-.3488491-22.3896485 4.8275578-1.7278594 1.4042907-3.2160924 2.975594-4.4235359 4.6714158-.1484802.209013-.4351501.2564486-.6429244.10673-.2072844-.1492244-.2543276-.4397673-.1058474-.6487803 1.2559569-1.7640104 2.8010338-3.3965847 4.5935777-4.8532521 6.6022266-5.3656551 15.5036922-7.2779017 23.2276064-4.9960529 7.2083985 2.1311419 13.2691376 7.9360702 16.2117911 15.529715 2.4697708 6.3746493 2.5079935 13.1040772.1068274 18.948041-2.444779 5.9506939-7.620517 10.8953583-14.2011821 13.5675623-3.297438 1.3390667-6.6874925 2.0081059-10.0089422 2.0081059"/><path d="m28.5415286 65c-.1217165 0-.242946-.047763-.333503-.141856-2.3676277-2.4669568-4.2191778-5.3623472-5.5030425-8.6073626-.870029-2.1985289-1.442583-4.4701352-1.7020824-6.7522493-.0282382-.2464569.1528758-.4690323.4045854-.4962572.2468409-.0243591.4776152.1494981.5058534.3969102.2507358 2.2042605.8043021 4.4004013 1.6460928 6.5263306 1.2405337 3.1361158 3.0292781 5.9345475 5.3160861 8.3174414.1733242.1800664.1645606.4647336-.0194746.6347697-.0886096.0816747-.2015624.1222732-.3145152.1222732"/><path d="m53.1654553 47.2792176c-1.7630556.4993309-3.3139054.8130997-4.7579033.9591396 2.3082996-1.8869506 5.3745484-2.9540536 8.4073435-2.9540536.2241892 0 .449377.0062657.6730668.0178332-1.2287963.9996259-2.8485506 1.5592044-4.322507 1.9770808m-7.2214876-10.8252642c.1018587-.1012157.1712625-.1224228.1832459-.1224228.0004993 0 .071401.0101215.2316788.2626789 1.6217515 2.5530465 2.080116 7.0503991 1.0480469 10.2473705-.0968657.1715848-.1962279.3402777-.2965888.5070426-.6910419-2.8195812-1.3481309-5.7109775-1.617757-8.6105674-.0768934-.8323789-.084383-1.7544061.4513742-2.2841018m7.6908369-.2766563c.3260479-.4067909.7110142-.8367168 1.1798642-1.1046975.1472957.7282713-.0973651 1.6286094-.7389755 2.7352348-.7664373 1.3239982-2.0636388 2.8210272-3.6060004 4.1893676.8313474-2.0503417 1.7740404-4.0809222 3.1651117-5.8199049m-8.9810481 17.1719729c1.7251082-.0751889 3.1521297-.0544638 4.5242273.3017192 1.5663284.405827 2.8031136 1.2300123 3.4821721 2.3212143.0119834.0187972.0214702.0351845.0299585.0510898-.020971-.0004819-.045437-.0019279-.0738976-.0043378-3.133156-.2559312-6.1789331-1.3707502-9.1238501-2.4474929-.0773927-.0284368-.1547854-.0563916-.2321781-.0853104.441388-.0862744.9122352-.1147112 1.3935679-.1368822m-4.4543243-10.1037406c.0514287-.1286886.0833844-.1725487.0753955-.1792964.0374481.0072297.1403055.0578375.2696262.1855622.7130114.7056182 1.2203081 1.6690957 1.6432217 3.1251564.4378929 1.5066685.5627198 2.7193294.3924559 3.8148693-.1827466 1.1774764-.734981 2.1896338-1.5363699 2.8393424-.1293207-1.0285446-.3714849-2.0397381-.6081568-3.0277965-.1018588-.426552-.2042169-.853104-.2975874-1.280138-.3495154-1.6030645-.6580876-3.6750953.0614148-5.4776994m18.7699762 1.5360693c-.0609156-.1542335-.2047162-.2650888-.3754795-.2877418-3.6504388-.4843896-7.4102259.5099345-10.3087073 2.6764332.5926783-1.0786705 1.0455504-2.1877058 1.3656066-3.3121645.0049931-.0033738.0109848-.0043378.0159779-.0086756 1.0710151-.8179196 3.7233377-3.0008056 5.2292498-5.5986763.9307096-1.6059563 1.137423-2.9097114.6316243-3.9850081-.0983636-.2091792-.3435237-.3132869-.5697101-.2448457-.9202242.2814761-1.5877986 1.0034817-2.0666347 1.6016185-1.7780348 2.2238544-2.8340707 4.8395582-3.8306889 7.3926047-.0684052.0395224-.1208325.0997698-.1617757.1691749.0294591-2.5867851-.5781984-5.2362275-1.7380902-7.0634126-.1113456-.1749586-.4059372-.6391051-.9376999-.6916408-.3285445-.0318107-.6600848.1021797-.9516806.3908855-.8018882.7928566-.811375 1.9611754-.7145093 2.9993597.3020812 3.2504711 1.0745102 6.4614199 1.8454413 9.5750088-.1378089.0727789-.2326774.2067693-.2431628.3663046-1.0705158 1.4416013-2.2603661 2.6243795-3.3024213 3.5203797-.0099862.0086757-.0204716.0168693-.0309571.0260269.3335376-.5909071.5717073-1.258931.6835523-1.9809366.1902362-1.2271203.0574204-2.5593122-.4174213-4.1941873-.2900978-.998662-.8003903-2.4503848-1.8753998-3.5136321-.4269081-.4226962-.9052449-.5624703-1.3136786-.3841378-.3724836.1633911-.5182815.5292137-.5801956.6853751-.8083792 2.0243148-.4803341 4.2650384-.1043553 5.9905258.0943691.4323358.1982251.8656355.3020811 1.2974893.3210549 1.3413496.6431084 2.7260772.6670752 4.0968275-2.3082997 1.5645061-4.7369325 2.8003021-6.9239003 3.8346305-.2331767.1108554-.3300424.38221-.2152016.6072945.0813871.1604992.2481559.2535213.421915.2535213.0694038 0 .1398062-.0144594.2067134-.0457881 2.6683005-1.2623048 5.6931067-2.8162074 8.4517819-4.9094452.3435237.1243507.6865481.2491835 1.0305712.3744982 3.0053332 1.0998777 6.1135238 2.2359038 9.378497 2.5034026.0429405.0033738.1068519.0081936.1832459.0081936.2371712 0 .5941762-.0486799.8113751-.3489533.1218311-.1682109.2741199-.5311416-.0669072-1.0777066-.8053834-1.2926696-2.2413924-2.2619307-4.0438933-2.7294511-1.5773131-.4096827-3.2455003-.402453-4.8113293-.33112-.2032182.0086756-.4044392.0197612-.6046616.0347025 1.1269375-1.0256528 2.1130703-2.112035 2.9469142-3.2446873 1.950296-.0428962 4.0184286-.3875117 6.4775191-1.0839724 1.9013638-.5393353 4.0354051-1.306647 5.4574335-2.9116394.1113456-.1257967.142802-.3007553.0818865-.4564348"/><path d="m35 85.9687929-2.030046 6.0312071-1.5394478-.610161.8205786-2.435651-1.8841551-.7469729-.8205786 2.435651-1.5463511-.6126576 2.030046-6.0302085 1.5468113.6126576-.759829 2.2573961 1.8846154.7464736.7593688-2.2573961z"/><path d="m42.1147028 89.830363c-.2591535.2474401-.4075028.600861-.4455059 1.062537-.0366294.4503047.0535706.8191906.2687687 1.1075675.2161139.2874672.5306694.4484853.9454981.4816895.4088764.0327495.7431203-.0759604 1.0027316-.3256748.2596114-.2501693.4075028-.5999514.4441323-1.050256.0375452-.4607663-.0503655-.8332911-.2632743-1.1189389-.2133666-.2851929-.5274643-.4448464-.9413773-.4775958-.4148286-.0332043-.7518197.0736862-1.0109732.3206715m2.6144281-1.3149806c.4349749.2915609.7650979.6763667.9903692 1.152598.225729.4766861.3154712 1.0011319.2683108 1.5715177-.0467026.5712956-.2202347 1.0739084-.5228856 1.5078383-.302651.4348397-.6918391.7614243-1.16848.9792989-.4766409.2187844-.9889955.3061162-1.5356903.2624503-.5471526-.0441207-1.0393611-.2119616-1.4770832-.5039773-.4377221-.2924706-.7710502-.6763667-.9995265-1.1535077-.2280184-.477141-.3186764-1.000677-.2724317-1.5719726.0467026-.5708407.2211504-1.0729986.5233435-1.5078383.3021931-.4343847.6927548-.7605145 1.1726008-.9792989.4793881-.2183295.9926585-.3052064 1.540269-.2615405.5521892.0445756 1.0457712.2128712 1.481204.5044321"/><path d="m52.7056161 86.6805359.6450259 3.6322091c.0638206.3598987.1900001.62265.3785387.7877504.1880513.1661071.4394361.2194628.7526926.1600669.3127694-.0604026.5320002-.2038588.6562311-.4313752.124718-.2280198.1554103-.5189589.0925641-.8723141l-.6455131-3.6327124 1.7061033-.3241606.6450259 3.6327125c.1062052.599999.0798975 1.1315418-.0808718 1.5956351-.1607693.4645966-.4248207.8416094-.7931286 1.1310385-.3683078.2894291-.8082311.4832207-1.3183082.5803682-.5105643.0966441-.9806928.0770133-1.4094109-.0588925-.4287181-.1348991-.7906926-.3921135-1.0854364-.7696297-.2952309-.3780195-.4964361-.869294-.6041028-1.4753333l-.6450259-3.6322091z"/><path d="m66.9850178 88.1183116c-.0442922.3126595-.1896102.6055768-.4374471.8815068-.2473392.27593-.5927183.5077847-1.0366349.695564-.6733399.2846532-1.3023877.36959-1.8861481.2557288-.5837603-.1143205-1.0311606-.4384578-1.3431962-.9733304l1.7174399-.7258658c.1094861.1804334.2408695.2924583.3961408.3369927.154276.0445345.3115379.0335156.4702929-.0335156.142332-.0601445.2368882-.140031.2841663-.2387414.0462828-.0996287.0398132-.209817-.0204042-.3314833-.080124-.1616096-.2219583-.2534332-.4245077-.2745526-.2025494-.0211195-.5031387-.0119371-.9012702.027547-.4245078.0394842-.7838215.0532577-1.0774435.0431571-.2931243-.0105597-.5817697-.0909053-.864443-.2401187-.2831711-.1496725-.5111014-.3985145-.6842886-.7474443-.1657222-.3333198-.2154887-.6597527-.148304-.9788398.0671847-.3181689.2319116-.6078724.4931854-.8681924.2622692-.2607791.5986903-.4774828 1.0097611-.6514886.6683633-.2818985 1.2725279-.3622442 1.8139867-.2396596.5419566.1235027.962483.439376 1.2615793.948538l-1.7338628.7327525c-.1050072-.1574775-.2219583-.2575653-.3533417-.3002633-.1303881-.0431571-.2697341-.0325973-.4175404.0298427-.1259091.0532577-.2095167.1253393-.2508229.2157855-.0408085.0909054-.0308552.1969617.0288646.318628.0751473.1510499.2130003.236905.4115684.256647.1985681.0206603.4911948.0128553.8783777-.0224968.426996-.0335156.790291-.0436162 1.0888897-.0289244.2990963.0137735.5912253.0954966.8768847.2437917.2856593.1478361.5165756.3994328.6922511.7529537.1478064.2984268.2000611.6032812.1562667.9154815"/><path d="m71.2207198 80.358446.6315096.7726736 1.5960058-1.1704948.8043132.9826092-1.5960059 1.1700355.6907288.8443365 1.8057001-1.3234677.8470286 1.0358971-3.1784204 2.3299646-3.8215796-4.6704948 3.1784204-2.3295052.847514 1.0354377z"/></g></svg>