<svg height="74" viewBox="0 0 74 74" width="74" xmlns="http://www.w3.org/2000/svg"><g fill="none" fill-rule="evenodd" transform="translate(2 2)"><circle cx="35" cy="35" opacity=".413318" r="35" stroke="#fff" stroke-width="3"/><path d="m0 35c0 19.3299662 15.6700338 35 35 35 19.3299662 0 35-15.6700338 35-35s-15.6700338-35-35-35" stroke="#fff" stroke-linecap="round" stroke-width="3"/><path d="m19.6174941 13.4509804-18.61120548-13.33365688c-.19702207-.14067008-.45244482-.1553371-.66294397-.04133434-.21114092.11533614-.34334465.3420083-.34334465.59001432v26.6673137c0 .248006.13220373.4753448.34334465.590681.0936978.0506679.19638031.0760018.29842106.0760018.12771137 0 .25478098-.040001.36452291-.1180029l18.61120548-13.3336568c.1739185-.1246697.2772427-.3293413.2772427-.54868 0-.2193386-.103966-.4240103-.2772427-.5486799z" fill="#fff" fill-rule="nonzero" transform="translate(28 22)"/></g></svg>